<svg xmlns="http://www.w3.org/2000/svg" viewBox="0 0 880 400" width="880" height="400" role="img" aria-label="同一批数据（37 个真垃圾号 / 141 个干净账号）">
  <style>
    .title { font: 600 17px -apple-system, "PingFang SC", "Segoe UI", sans-serif; fill: #1f2328; }
    .panel { font: 600 14px -apple-system, "PingFang SC", "Segoe UI", sans-serif; fill: #1f2328; }
    .row   { font: 13px -apple-system, "PingFang SC", "Segoe UI", sans-serif; fill: #57606a; }
    .value { font: 600 13px -apple-system, "PingFang SC", "Segoe UI", sans-serif; }
    .note  { font: 11.5px -apple-system, "PingFang SC", "Segoe UI", sans-serif; fill: #8c959f; }
    .miss  { font: 600 13.5px -apple-system, "PingFang SC", "Segoe UI", sans-serif; fill: #1f2328; }
    .misss { font: 12.5px -apple-system, "PingFang SC", "Segoe UI", sans-serif; fill: #1a7f37; }
  </style>
  <rect width="880" height="400" fill="#ffffff"/>
  <text x="40" y="46" class="title">同一批数据（37 个真垃圾号 / 141 个干净账号）</text>

  <text x="40" y="96" class="panel">抓到了多少垃圾号（召回，越高越好）</text>
  <text x="40" y="135" class="row">778 条关键词（原版）</text>
  <rect x="208" y="122" width="162.3" height="20" rx="5" fill="#8c959f"/>
  <text x="380" y="136" class="value" fill="#57606a">54.1%</text>
  <text x="40" y="169" class="row">清流 · Jev 标准档</text>
  <rect x="208" y="156" width="170.4" height="20" rx="5" fill="#1a7f37"/>
  <text x="388" y="170" class="value" fill="#1a7f37">56.8%</text>
  <text x="40" y="203" class="row">清流 · Jev 大扫除档</text>
  <rect x="208" y="190" width="202.8" height="20" rx="5" fill="#1a7f37"/>
  <text x="421" y="204" class="value" fill="#1a7f37">67.6%</text>

  <text x="40" y="236" class="panel">误杀了多少正常人（误杀率，越低越好）</text>
  <text x="40" y="275" class="row">778 条关键词（原版）</text>
  <rect x="208" y="262" width="234.0" height="20" rx="5" fill="#bf8700"/>
  <text x="452" y="276" class="value" fill="#57606a">7.8%</text>
  <text x="40" y="309" class="row">清流 · Jev 标准档</text>
  <rect x="208" y="296" width="21.0" height="20" rx="5" fill="#1a7f37"/>
  <text x="239" y="310" class="value" fill="#1a7f37">0.7%</text>
  <text x="40" y="343" class="row">清流 · Jev 大扫除档</text>
  <rect x="208" y="330" width="171.0" height="20" rx="5" fill="#bf8700"/>
  <text x="389" y="344" class="value" fill="#57606a">5.7%</text>

  <rect x="40" y="352" width="800" height="34" rx="8" fill="#f6f8fa"/>
  <text x="56" y="373" class="miss">词库完全认不出的 17 个垃圾号 →</text>
  <text x="528" y="373" class="misss">清流的 AI 层另外抓到了 8 个（47%）</text>

  <text x="40" y="394" class="note">数据来源：jev/RESULTS.md · 判据与阈值在跑之前已冻结（预注册）</text>
</svg>
